<svg xmlns="http://www.w3.org/2000/svg" xmlns:xlink="http://www.w3.org/1999/xlink" width="48" height="48" viewBox="0 0 48 48"><defs><radialGradient xlink:href="#a" id="b" cx="45.7735" cy="43.0932" r="52" fx="45.7735" fy="43.0932" gradientTransform="matrix(-.74534 -.03356 .02947 -.65467 71.0661 37.0306)" gradientUnits="userSpaceOnUse"/><linearGradient id="a"><stop offset="0" stop-color="#d2f9f2"/><stop offset=".4833" stop-color="#57fad1"/><stop offset="1" stop-color="#0c9"/></linearGradient></defs><path fill="url(#b)" stroke="#172c31" stroke-linecap="round" stroke-width="4" d="M18 4c0-1.11.9007-2 2-2h8c1.106 0 2 .8762 2 2v11h12c1.092 0 2 .8735 2 2v8c0 1.0994-.8917 2-2 2H30v3c0 2.189 1.7736 4 4 4h2c1.1235 0 2 .8921 2 2v8c0 1.1164-.8972 2-2 2h-4c-7.777 0-14-6.7812-14-15v-4H6c-1.1214 0-2-.8922-2-2v-8c0-1.112.8746-2 2-2h12z" paint-order="markers stroke fill"/></svg>